<svg width="34" height="35" viewBox="0 0 34 35" fill="none" xmlns="http://www.w3.org/2000/svg">
<g clip-path="url(#clip0)">
<path d="M11.2102 17.4527C11.2102 14.8939 11.2102 12.3352 11.2102 9.77646C11.2102 9.66538 11.2102 9.55843 11.2143 9.44736C11.2184 9.27047 11.2963 9.20053 11.4686 9.28692C11.5466 9.32395 11.6204 9.36097 11.6983 9.39799C16.9199 12.0143 22.1457 14.6307 27.3673 17.2511C27.4411 17.2881 27.519 17.3252 27.5929 17.3663C27.72 17.4403 27.7487 17.5185 27.5929 17.5967C27.5396 17.6255 27.4862 17.6501 27.4288 17.6789C22.1949 20.2994 16.961 22.9239 11.7229 25.5444C11.6491 25.5814 11.5712 25.6184 11.4973 25.6555C11.3169 25.746 11.2225 25.6925 11.2143 25.4909C11.2102 25.3716 11.2102 25.2482 11.2102 25.1289C11.2102 22.5702 11.2102 20.0114 11.2102 17.4527ZM22.8635 17.4856C22.7404 17.4157 22.6912 17.3827 22.6379 17.3539C19.6969 15.8853 16.7559 14.4126 13.8149 12.944C13.4867 12.7795 13.4621 12.8 13.4621 13.1826C13.4621 16.017 13.4621 18.8555 13.4621 21.6898C13.4621 22.1588 13.4826 22.1711 13.8928 21.9696C16.0668 20.8835 18.2407 19.7975 20.4147 18.7115C21.2104 18.3166 22.0062 17.9175 22.8635 17.4856Z" fill="#222222"/>
<path d="M16.9937 34.4997C13.4087 34.4175 10.0822 33.5124 7.15757 31.3445C6.82532 31.0977 6.82532 31.0894 7.17808 30.9043C7.70311 30.6287 8.23225 30.3613 8.74908 30.0775C8.95006 29.9664 9.11414 29.9623 9.31923 30.0898C11.9649 31.7147 14.8485 32.4305 17.9372 32.2413C21.1325 32.048 23.9873 30.9208 26.4525 28.8598C29.2008 26.5602 30.8989 23.6271 31.5429 20.0934C31.6208 19.6656 31.6742 19.2296 31.7193 18.7976C31.7398 18.6002 31.8382 18.5179 32.0228 18.5179C32.5807 18.5179 33.1344 18.522 33.6923 18.5138C33.9507 18.5097 34.0327 18.6413 33.9999 18.8799C33.643 21.4921 33.0032 24.0097 31.6003 26.2887C29.9555 28.9626 27.761 31.0401 25.021 32.5416C23.1834 33.5495 21.1817 34.0472 19.1349 34.3928C18.4253 34.5162 17.7116 34.4586 16.9937 34.4997Z" fill="#222222"/>
<path d="M17.0759 0.508154C22.0802 0.627453 26.342 2.43749 29.7178 6.18922C31.9327 8.64512 33.2576 11.5453 33.7909 14.8075C33.8442 15.1407 33.8852 15.478 33.9426 15.8112C33.9878 16.0786 33.8729 16.1527 33.6268 16.1444C33.1059 16.1321 32.5849 16.128 32.0681 16.1444C31.7974 16.1527 31.6866 16.0539 31.6538 15.7783C31.3872 13.3553 30.5709 11.1339 29.1722 9.14288C26.6537 5.57216 23.2287 3.45359 18.893 2.88178C15.4229 2.42515 12.1907 3.15328 9.21275 4.99624C9.01176 5.11965 8.85179 5.13199 8.64669 5.0168C8.11756 4.72473 7.58022 4.445 7.03878 4.17349C6.74345 4.0254 6.80498 3.92255 7.02647 3.75389C8.96253 2.2894 11.1406 1.38027 13.5074 0.882504C14.6846 0.639794 15.8618 0.45879 17.0759 0.508154Z" fill="#222222"/>
<path d="M0 17.4816C0.164073 13.1992 1.50127 9.37339 4.36844 6.13176C4.56123 5.91374 4.71709 5.86026 4.98371 6.01247C5.44722 6.27574 5.92713 6.50611 6.40705 6.73237C6.67366 6.85578 6.72289 6.9504 6.48908 7.18899C4.88937 8.8386 3.67113 10.7433 3.01484 12.9523C1.45204 18.2138 2.40367 22.9816 5.92303 27.2146C6.10761 27.4368 6.3086 27.6507 6.50959 27.8564C6.66136 28.0086 6.65726 28.1197 6.45627 28.2143C5.90252 28.4817 5.34467 28.7532 4.79503 29.0288C4.54482 29.1563 4.43817 28.9589 4.31922 28.8231C3.47834 27.8358 2.72361 26.7868 2.08783 25.6514C0.959826 23.6316 0.438895 21.4225 0.0902401 19.16C0.00820364 18.6005 0.0287128 18.0451 0 17.4816Z" fill="#222222"/>
</g>
<defs>
<clipPath id="clip0">
<rect width="34" height="34" fill="white" transform="translate(0 0.5)"/>
</clipPath>
</defs>
</svg>
