<svg width="45" height="31" viewBox="0 0 45 31" fill="none" xmlns="http://www.w3.org/2000/svg">
<path d="M0.688 13V0.399999H8.788V2.56H3.064V5.566H8.284V7.726H3.064V10.84H8.896V13H0.688ZM12.0948 13V10.912H13.7508V2.488H12.0948V0.399999H17.2788C18.9708 0.399999 20.2548 0.831999 21.1308 1.696C22.0188 2.548 22.4628 3.82 22.4628 5.512V7.888C22.4628 9.58 22.0188 10.858 21.1308 11.722C20.2548 12.574 18.9708 13 17.2788 13H12.0948ZM16.1268 10.84H17.3148C18.2748 10.84 18.9768 10.588 19.4208 10.084C19.8648 9.58 20.0868 8.872 20.0868 7.96V5.44C20.0868 4.516 19.8648 3.808 19.4208 3.316C18.9768 2.812 18.2748 2.56 17.3148 2.56H16.1268V10.84ZM31.1031 13.252C30.0711 13.252 29.1831 13.066 28.4391 12.694C27.7071 12.31 27.1431 11.77 26.7471 11.074C26.3631 10.366 26.1711 9.532 26.1711 8.572V0.399999H28.5471V8.644C28.5471 9.412 28.7631 10.018 29.1951 10.462C29.6391 10.906 30.2751 11.128 31.1031 11.128C31.9311 11.128 32.5611 10.906 32.9931 10.462C33.4371 10.018 33.6591 9.412 33.6591 8.644V0.399999H36.0351V8.572C36.0351 9.532 35.8371 10.366 35.4411 11.074C35.0571 11.77 34.4931 12.31 33.7491 12.694C33.0171 13.066 32.1351 13.252 31.1031 13.252ZM7.05831 30V17.4H9.43431V22.602H14.1143V17.4H16.4903V30H14.1143V24.762H9.43431V30H7.05831ZM25.5308 30.252C24.4988 30.252 23.6108 30.066 22.8668 29.694C22.1348 29.31 21.5708 28.77 21.1748 28.074C20.7908 27.366 20.5988 26.532 20.5988 25.572V17.4H22.9748V25.644C22.9748 26.412 23.1908 27.018 23.6228 27.462C24.0668 27.906 24.7028 28.128 25.5308 28.128C26.3588 28.128 26.9888 27.906 27.4208 27.462C27.8648 27.018 28.0868 26.412 28.0868 25.644V17.4H30.4628V25.572C30.4628 26.532 30.2648 27.366 29.8688 28.074C29.4848 28.77 28.9208 29.31 28.1768 29.694C27.4448 30.066 26.5628 30.252 25.5308 30.252ZM34.2046 30V27.912H35.8606V19.488H34.2046V17.4H40.6846C41.4526 17.4 42.1186 17.532 42.6826 17.796C43.2586 18.048 43.7026 18.414 44.0146 18.894C44.3386 19.362 44.5006 19.926 44.5006 20.586V20.766C44.5006 21.342 44.3926 21.816 44.1766 22.188C43.9606 22.548 43.7026 22.83 43.4026 23.034C43.1146 23.226 42.8386 23.364 42.5746 23.448V23.772C42.8386 23.844 43.1266 23.982 43.4386 24.186C43.7506 24.378 44.0146 24.66 44.2306 25.032C44.4586 25.404 44.5726 25.89 44.5726 26.49V26.67C44.5726 27.366 44.4106 27.966 44.0866 28.47C43.7626 28.962 43.3126 29.34 42.7366 29.604C42.1726 29.868 41.5126 30 40.7566 30H34.2046ZM38.2366 27.84H40.4686C40.9846 27.84 41.3986 27.714 41.7106 27.462C42.0346 27.21 42.1966 26.85 42.1966 26.382V26.202C42.1966 25.734 42.0406 25.374 41.7286 25.122C41.4166 24.87 40.9966 24.744 40.4686 24.744H38.2366V27.84ZM38.2366 22.584H40.4326C40.9246 22.584 41.3266 22.458 41.6386 22.206C41.9626 21.954 42.1246 21.606 42.1246 21.162V20.982C42.1246 20.526 41.9686 20.178 41.6566 19.938C41.3446 19.686 40.9366 19.56 40.4326 19.56H38.2366V22.584Z" fill="white"/>
</svg>
