<svg width="48" height="40" viewBox="0 0 48 40" fill="none" xmlns="http://www.w3.org/2000/svg">
<path d="M42.1974 12.7535H27.6565V12.2385L30.4168 10.5896C31.1481 10.1708 31.5949 9.41836 31.6162 8.57257C31.6374 7.72145 31.2226 6.9397 30.5259 6.49947L27.6007 4.56777C27.2363 1.98773 25.0212 0 22.3512 0H5.80259C2.88005 0 0.5 2.38794 0.5 5.32017V21.9237C0.5 24.8586 2.88005 27.2439 5.80259 27.2439H20.3435V27.7588L17.5805 29.4077C16.8492 29.8266 16.4025 30.579 16.3812 31.4248C16.3599 32.2759 16.7748 33.0576 17.4715 33.4979L20.394 35.4296C20.761 38.0069 22.9762 39.9973 25.6434 39.9973H42.1921C45.1173 39.9973 47.4947 37.6094 47.4947 34.6772V18.0763C47.5 15.1414 45.1199 12.7535 42.1974 12.7535ZM5.80259 24.5758C4.34531 24.5758 3.15927 23.3858 3.15927 21.9237V5.32017C3.15927 3.85806 4.34531 2.66809 5.80259 2.66809H22.3512C23.8085 2.66809 24.9946 3.85806 24.9946 5.32017C24.9946 5.76841 25.2179 6.1873 25.5929 6.43543L28.7176 8.50053L25.6461 10.3362C25.2445 10.5763 24.9972 11.0112 24.9972 11.4835V12.8015C22.3805 13.127 20.3462 15.3655 20.3462 18.079V24.5811H5.80259V24.5758ZM44.8407 34.6772C44.8407 36.1393 43.6547 37.3292 42.1974 37.3292H25.6487C24.1915 37.3292 23.0054 36.1393 23.0054 34.6772C23.0054 34.2289 22.7821 33.81 22.4071 33.5619L19.2824 31.4968L22.3539 29.6612C22.7555 29.421 23.0028 28.9861 23.0028 28.5139V18.0763C23.0028 16.6142 24.1888 15.4242 25.6461 15.4242H42.1947C43.652 15.4242 44.8381 16.6142 44.8381 18.0763V34.6772H44.8407Z" fill="black"/>
<path d="M35.1477 21.0618C34.9216 20.3228 34.5174 20.0293 33.7223 20.0213C32.9325 20.0133 32.5123 20.3121 32.289 21.0458C31.3343 24.1595 30.4009 27.2785 29.4143 30.3815C29.1271 31.286 29.5632 31.5821 30.2679 31.7422C30.962 31.8996 31.1854 31.7422 31.3822 31.0538C31.5231 30.5602 31.6428 30.0613 31.8076 29.5784C31.8528 29.4476 32.0284 29.2715 32.1454 29.2715C33.2649 29.2475 34.3871 29.2582 35.5333 29.2582C35.7194 29.9146 35.887 30.5522 36.0891 31.1819C36.1502 31.374 36.2672 31.5901 36.4241 31.6995C36.7406 31.921 37.4666 31.7395 37.8601 31.4354C38.2298 31.1472 38.1341 30.811 38.025 30.4508C37.0624 27.3212 36.105 24.1915 35.1477 21.0618ZM32.3315 27.612C32.7836 26.0085 33.225 24.437 33.7064 22.7294C34.1904 24.4423 34.6318 26.0058 35.0865 27.612C34.1558 27.612 33.2915 27.612 32.3315 27.612Z" fill="black"/>
<path d="M18.3995 17.0517C18.1203 17.0196 17.8384 17.009 17.5619 16.9716C16.7135 16.8542 15.9104 16.6088 15.1659 16.1125C16.3599 14.7918 17.022 13.2656 17.2534 11.4994C17.6549 11.4994 18.0325 11.5154 18.4075 11.494C18.8809 11.4674 19.1946 11.1525 19.2212 10.7176C19.2478 10.2934 18.9633 9.93854 18.4979 9.8585C18.2559 9.81581 18.006 9.82115 17.7586 9.82115C16.7401 9.81848 15.7243 9.81848 14.6632 9.81848C14.6632 9.11143 14.7138 8.46309 14.6393 7.82808C14.6074 7.54794 14.384 7.19842 14.1447 7.05968C13.9506 6.94762 13.5224 7.00898 13.3416 7.16106C13.1395 7.33449 13.0225 7.69201 12.9985 7.98017C12.948 8.58315 12.9826 9.19148 12.9826 9.81848C12.7566 9.81848 12.6103 9.81848 12.4614 9.81848C11.4376 9.81848 10.4137 9.80514 9.38992 9.82381C8.7969 9.83449 8.42194 10.1893 8.42726 10.6749C8.43258 11.1712 8.79956 11.486 9.40587 11.4994C9.7303 11.5074 10.0547 11.4994 10.4058 11.4994C10.6318 13.2763 11.3099 14.7945 12.4933 16.1178C11.4721 16.7528 10.4031 16.977 9.2862 17.0463C8.74637 17.081 8.39003 17.4732 8.42992 17.9401C8.47247 18.4204 8.87136 18.7379 9.40853 18.7139C10.8312 18.6472 12.1848 18.319 13.3895 17.5292C13.7192 17.3131 13.9559 17.3318 14.275 17.5399C15.4823 18.327 16.8359 18.6498 18.2586 18.7139C18.7931 18.7379 19.192 18.399 19.2186 17.9215C19.2478 17.4706 18.9101 17.1104 18.3995 17.0517ZM13.8256 15.0639C12.8948 14.0634 12.3204 12.9241 12.1369 11.5421C13.2751 11.5421 14.384 11.5421 15.5222 11.5421C15.3387 12.9135 14.767 14.0661 13.8256 15.0639Z" fill="black"/>
</svg>
