<svg width="23" height="24" viewBox="0 0 23 24" fill="none" xmlns="http://www.w3.org/2000/svg">
<g clip-path="url(#clip0)">
<path d="M16.6526 0.5H6.34699C2.84726 0.5 0 3.3474 0 6.84713V17.1527C0 20.6526 2.84726 23.4999 6.34699 23.4999H16.6526C20.1526 23.4999 22.9999 20.6525 22.9999 17.1527V6.84713C23 3.3474 20.1526 0.5 16.6526 0.5ZM20.9593 17.1527C20.9593 19.5274 19.0274 21.4592 16.6527 21.4592H6.34699C3.97248 21.4593 2.04066 19.5274 2.04066 17.1527V6.84713C2.04066 4.47262 3.97248 2.54066 6.34699 2.54066H16.6526C19.0272 2.54066 20.9592 4.47262 20.9592 6.84713V17.1527H20.9593Z" fill="#F2F2F2"/>
<path d="M11.5 6.07373C8.23206 6.07373 5.57349 8.7323 5.57349 12.0002C5.57349 15.268 8.23206 17.9264 11.5 17.9264C14.7679 17.9264 17.4264 15.268 17.4264 12.0002C17.4264 8.7323 14.7679 6.07373 11.5 6.07373ZM11.5 15.8856C9.35741 15.8856 7.61415 14.1426 7.61415 12.0001C7.61415 9.85738 9.35728 8.11425 11.5 8.11425C13.6427 8.11425 15.3858 9.85738 15.3858 12.0001C15.3858 14.1426 13.6425 15.8856 11.5 15.8856Z" fill="#F2F2F2"/>
<path d="M17.675 4.34326C17.2818 4.34326 16.8956 4.50243 16.6179 4.78132C16.3389 5.05885 16.1785 5.44522 16.1785 5.83974C16.1785 6.23305 16.339 6.61928 16.6179 6.89817C16.8954 7.1757 17.2818 7.33623 17.675 7.33623C18.0695 7.33623 18.4545 7.1757 18.7334 6.89817C19.0123 6.61928 19.1714 6.23291 19.1714 5.83974C19.1714 5.44522 19.0123 5.05885 18.7334 4.78132C18.4558 4.50243 18.0695 4.34326 17.675 4.34326Z" fill="#F2F2F2"/>
</g>
<defs>
<clipPath id="clip0">
<rect width="23" height="23" fill="white" transform="translate(0 0.5)"/>
</clipPath>
</defs>
</svg>
