<svg width="50" height="33" viewBox="0 0 50 33" fill="none" xmlns="http://www.w3.org/2000/svg">
<path d="M0.32 14V-9.53674e-07H9.32V2.4H2.96V5.74H8.76V8.14H2.96V11.6H9.44V14H0.32ZM12.9942 14V11.68H14.8342V2.32H12.9942V-9.53674e-07H18.7542C20.6342 -9.53674e-07 22.0609 0.479999 23.0342 1.44C24.0209 2.38667 24.5142 3.8 24.5142 5.68V8.32C24.5142 10.2 24.0209 11.62 23.0342 12.58C22.0609 13.5267 20.6342 14 18.7542 14H12.9942ZM17.4742 11.6H18.7942C19.8609 11.6 20.6409 11.32 21.1342 10.76C21.6276 10.2 21.8742 9.41333 21.8742 8.4V5.6C21.8742 4.57333 21.6276 3.78667 21.1342 3.24C20.6409 2.68 19.8609 2.4 18.7942 2.4H17.4742V11.6ZM34.1145 14.28C32.9679 14.28 31.9812 14.0733 31.1545 13.66C30.3412 13.2333 29.7145 12.6333 29.2745 11.86C28.8479 11.0733 28.6345 10.1467 28.6345 9.08V-9.53674e-07H31.2745V9.16C31.2745 10.0133 31.5145 10.6867 31.9945 11.18C32.4879 11.6733 33.1945 11.92 34.1145 11.92C35.0345 11.92 35.7345 11.6733 36.2145 11.18C36.7079 10.6867 36.9545 10.0133 36.9545 9.16V-9.53674e-07H39.5945V9.08C39.5945 10.1467 39.3745 11.0733 38.9345 11.86C38.5079 12.6333 37.8812 13.2333 37.0545 13.66C36.2412 14.0733 35.2612 14.28 34.1145 14.28ZM7.39812 32V18H10.0381V23.78H15.2381V18H17.8781V32H15.2381V26.18H10.0381V32H7.39812ZM27.9231 32.28C26.7765 32.28 25.7898 32.0733 24.9631 31.66C24.1498 31.2333 23.5231 30.6333 23.0831 29.86C22.6565 29.0733 22.4431 28.1467 22.4431 27.08V18H25.0831V27.16C25.0831 28.0133 25.3231 28.6867 25.8031 29.18C26.2965 29.6733 27.0031 29.92 27.9231 29.92C28.8431 29.92 29.5431 29.6733 30.0231 29.18C30.5165 28.6867 30.7631 28.0133 30.7631 27.16V18H33.4031V27.08C33.4031 28.1467 33.1831 29.0733 32.7431 29.86C32.3165 30.6333 31.6898 31.2333 30.8631 31.66C30.0498 32.0733 29.0698 32.28 27.9231 32.28ZM37.5606 32V29.68H39.4006V20.32H37.5606V18H44.7606C45.614 18 46.354 18.1467 46.9806 18.44C47.6206 18.72 48.114 19.1267 48.4606 19.66C48.8206 20.18 49.0006 20.8067 49.0006 21.54V21.74C49.0006 22.38 48.8806 22.9067 48.6406 23.32C48.4006 23.72 48.114 24.0333 47.7806 24.26C47.4606 24.4733 47.154 24.6267 46.8606 24.72V25.08C47.154 25.16 47.474 25.3133 47.8206 25.54C48.1673 25.7533 48.4606 26.0667 48.7006 26.48C48.954 26.8933 49.0806 27.4333 49.0806 28.1V28.3C49.0806 29.0733 48.9006 29.74 48.5406 30.3C48.1806 30.8467 47.6806 31.2667 47.0406 31.56C46.414 31.8533 45.6806 32 44.8406 32H37.5606ZM42.0406 29.6H44.5206C45.094 29.6 45.554 29.46 45.9006 29.18C46.2606 28.9 46.4406 28.5 46.4406 27.98V27.78C46.4406 27.26 46.2673 26.86 45.9206 26.58C45.574 26.3 45.1073 26.16 44.5206 26.16H42.0406V29.6ZM42.0406 23.76H44.4806C45.0273 23.76 45.474 23.62 45.8206 23.34C46.1806 23.06 46.3606 22.6733 46.3606 22.18V21.98C46.3606 21.4733 46.1873 21.0867 45.8406 20.82C45.494 20.54 45.0406 20.4 44.4806 20.4H42.0406V23.76Z" fill="white"/>
</svg>
