<svg width="48" height="48" viewBox="0 0 48 48" fill="none" xmlns="http://www.w3.org/2000/svg">
<g clip-path="url(#clip0_4675_8117)">
<path d="M15.8262 23.9333C15.8262 20.3209 15.8262 16.7086 15.8262 13.0963C15.8262 12.9395 15.8262 12.7885 15.832 12.6316C15.8378 12.3819 15.9478 12.2832 16.191 12.4052C16.301 12.4574 16.4053 12.5097 16.5153 12.562C23.887 16.2556 31.2645 19.9493 38.6362 23.6487C38.7404 23.701 38.8504 23.7532 38.9546 23.8113C39.1342 23.9159 39.1747 24.0262 38.9546 24.1365C38.8794 24.1772 38.8041 24.212 38.723 24.2527C31.334 27.9522 23.9449 31.6574 16.55 35.3569C16.4458 35.4091 16.3358 35.4614 16.2315 35.5137C15.9767 35.6414 15.8435 35.5659 15.832 35.2814C15.8262 35.113 15.8262 34.9387 15.8262 34.7703C15.8262 31.158 15.8262 27.5456 15.8262 23.9333ZM32.2779 23.9797C32.1041 23.881 32.0346 23.8346 31.9594 23.7939C27.8073 21.7206 23.6553 19.6414 19.5033 17.5681C19.0401 17.3358 19.0053 17.3649 19.0053 17.905C19.0053 21.9064 19.0053 25.9137 19.0053 29.9151C19.0053 30.5772 19.0343 30.5946 19.6134 30.31C22.6825 28.7768 25.7516 27.2436 28.8207 25.7104C29.9442 25.1529 31.0676 24.5895 32.2779 23.9797Z" fill="white"/>
<path d="M23.9912 47.9997C18.93 47.8836 14.2337 46.6059 10.1048 43.5453C9.63579 43.1968 9.63579 43.1852 10.1338 42.9238C10.875 42.5347 11.622 42.1572 12.3517 41.7565C12.6354 41.5997 12.8671 41.5939 13.1566 41.7739C16.8917 44.0679 20.9626 45.0785 25.3231 44.8113C29.8341 44.5384 33.8645 42.9471 37.3448 40.0375C41.2247 36.791 43.622 32.6502 44.5312 27.6614C44.6412 27.0574 44.7165 26.4418 44.7802 25.832C44.8092 25.5532 44.9481 25.4371 45.2087 25.4371C45.9963 25.4371 46.778 25.4429 47.5656 25.4313C47.9304 25.4255 48.0462 25.6113 47.9999 25.9482C47.4961 29.636 46.5927 33.1903 44.6123 36.4077C42.2902 40.1826 39.1921 43.1155 35.3238 45.2353C32.7295 46.6581 29.9036 47.3609 27.014 47.8487C26.0122 48.0229 25.0046 47.9416 23.9912 47.9997Z" fill="white"/>
<path d="M24.1071 0.011512C31.1719 0.179933 37.1885 2.73529 41.9543 8.03184C45.0814 11.499 46.9518 15.5934 47.7046 20.1988C47.7799 20.6692 47.8378 21.1454 47.9189 21.6159C47.9826 21.9934 47.8204 22.0979 47.473 22.0863C46.7376 22.0689 46.0021 22.0631 45.2725 22.0863C44.8903 22.0979 44.7339 21.9585 44.6876 21.5694C44.3112 18.1487 43.1588 15.0126 41.1842 12.2017C37.6286 7.1607 32.7933 4.16977 26.6724 3.36251C21.7734 2.71786 17.2102 3.74581 13.0061 6.34763C12.7223 6.52186 12.4965 6.53928 12.207 6.37667C11.46 5.96432 10.7014 5.56941 9.93697 5.1861C9.52003 4.97703 9.6069 4.83184 9.9196 4.59373C12.6529 2.52621 15.7278 1.24273 19.0691 0.540006C20.731 0.197356 22.393 -0.0581795 24.1071 0.011512Z" fill="white"/>
<path d="M0 23.9737C0.231632 17.928 2.11944 12.5269 6.16721 7.95047C6.43938 7.64266 6.65943 7.56716 7.03583 7.78205C7.69019 8.15373 8.36772 8.47896 9.04524 8.79838C9.42164 8.97261 9.49113 9.10618 9.16106 9.44303C6.90264 11.7719 5.18277 14.4608 4.25624 17.5795C2.04995 25.0075 3.39341 31.7385 8.36193 37.7145C8.62251 38.0281 8.90626 38.3301 9.19001 38.6205C9.40427 38.8354 9.39848 38.9922 9.11473 39.1258C8.33297 39.5033 7.54542 39.8866 6.76945 40.2757C6.41621 40.4557 6.26565 40.177 6.09772 39.9853C4.9106 38.5915 3.8451 37.1105 2.94752 35.5076C1.35505 32.6561 0.619616 29.5374 0.127398 26.3432C0.0115816 25.5534 0.0405357 24.7693 0 23.9737Z" fill="white"/>
</g>
<defs>
<clipPath id="clip0_4675_8117">
<rect width="48" height="48" fill="white"/>
</clipPath>
</defs>
</svg>
