<?xml version="1.0" encoding="utf-8"?><svg version="1.1" id="Layer_1" xmlns="http://www.w3.org/2000/svg" xmlns:xlink="http://www.w3.org/1999/xlink" x="0px" y="0px" viewBox="0 0 122.88 66.26" style="enable-background:new 0 0 122.88 66.26" xml:space="preserve"><style type="text/css"><![CDATA[
	.st0{fill-rule:evenodd;clip-rule:evenodd;}
]]></style><g><path class="st0" d="M2.73,60.82h10.51c-1-0.26-1.75-1.18-1.75-2.26V2.33c0-1.28,1.05-2.33,2.33-2.33h94.64 c1.28,0,2.33,1.05,2.33,2.33v56.22c0,1.08-0.74,2-1.75,2.26h11.12c1.5,0,2.73,1.22,2.73,2.73l0,0c0,1.5-1.22,2.73-2.73,2.73H2.73 c-1.5,0-2.73-1.22-2.73-2.73l0,0C0,62.04,1.22,60.82,2.73,60.82L2.73,60.82L2.73,60.82z M29.91,10.97h24.38v29.24 c-0.05,0.82-1.1,0.84-2.24,0.79H29.52c-1.58,0-2.87,1.29-2.87,2.87c0,1.58,1.29,2.87,2.87,2.87h23.57v-3.05h2.24v3.88 c0,0.71-0.58,1.28-1.28,1.28H29.63c-2.84,1.05-5.16-1.27-5.16-4.11V16.41C24.48,13.42,26.92,10.97,29.91,10.97L29.91,10.97z M66.73,47.29c-0.81,0-1.47-0.71-1.47-1.58s0.66-1.58,1.47-1.58h29.29c0.81,0,1.47,0.71,1.47,1.58s-0.66,1.58-1.47,1.58H66.73 L66.73,47.29z M66.52,12.78h32.27c0.69,0,1.26,0.57,1.26,1.26v4.5c0,0.68-0.57,1.26-1.26,1.26H66.52c-0.68,0-1.26-0.56-1.26-1.26 v-4.5C65.26,13.34,65.83,12.78,66.52,12.78L66.52,12.78z M66.73,29.63c-0.81,0-1.47-0.71-1.47-1.58c0-0.87,0.66-1.58,1.47-1.58 h27.28c0.81,0,1.47,0.71,1.47,1.58c0,0.87-0.66,1.58-1.47,1.58H66.73L66.73,29.63z M66.73,38.46c-0.81,0-1.47-0.71-1.47-1.58 s0.66-1.58,1.47-1.58h23.03c0.81,0,1.47,0.71,1.47,1.58s-0.66,1.58-1.47,1.58H66.73L66.73,38.46z M30.92,15.22h0.91 c0.46,0,0.84,0.31,0.84,0.68v21.37c0,0.37-0.38,0.68-0.84,0.68h-0.91c-0.46,0-0.84-0.31-0.84-0.68V15.9 C30.08,15.52,30.46,15.22,30.92,15.22L30.92,15.22z M15.47,3.65h91.65v54.24H15.47V3.65L15.47,3.65L15.47,3.65z M59.15,61.84h7.67 c0.72,0,1.31,0.59,1.31,1.31l0,0c0,0.72-0.59,1.31-1.31,1.31h-7.67c-0.72,0-1.31-0.59-1.31-1.31l0,0 C57.84,62.42,58.43,61.84,59.15,61.84L59.15,61.84L59.15,61.84z"/></g></svg>