<svg width="33" height="44" viewBox="0 0 33 44" fill="none" xmlns="http://www.w3.org/2000/svg">
<path d="M16.5001 7.35144C11.4459 7.35144 7.33203 11.4777 7.33203 16.5473C7.33203 21.6168 11.4459 25.7431 16.5001 25.7431C21.5543 25.7431 25.6681 21.6195 25.6681 16.5473C25.6681 11.4777 21.557 7.35144 16.5001 7.35144ZM16.5001 23.0249C12.9391 23.0249 10.0421 20.1191 10.0421 16.5473C10.0421 12.9755 12.9391 10.0697 16.5001 10.0697C20.061 10.0697 22.958 12.9755 22.958 16.5473C22.958 20.1191 20.061 23.0249 16.5001 23.0249Z" fill="black"/>
<path d="M16.5 0.498657C7.67886 0.498657 0.5 7.6993 0.5 16.5472C0.5 20.3337 2.36721 25.3108 6.04743 31.3399C9.16396 36.4475 12.6518 40.7478 14.2209 42.482C14.8035 43.1263 15.6355 43.4959 16.5 43.4959C17.3645 43.4959 18.1965 43.1263 18.7791 42.482C20.3482 40.7451 23.836 36.4448 26.9526 31.3399C30.6328 25.3081 32.5 20.331 32.5 16.5472C32.5 7.6993 25.3238 0.498657 16.5 0.498657ZM16.7737 40.6581C16.6816 40.7587 16.5759 40.7804 16.5027 40.7804C16.4295 40.7804 16.3211 40.7587 16.2317 40.6581C12.1504 36.1458 3.21003 23.8131 3.21003 16.5472C3.21003 9.19706 9.17209 3.21691 16.5 3.21691C23.8279 3.21691 29.79 9.19706 29.79 16.5472C29.79 23.8131 20.8496 36.1458 16.7737 40.6581Z" fill="black"/>
</svg>
