<svg width="23" height="24" viewBox="0 0 23 24" fill="none" xmlns="http://www.w3.org/2000/svg">
<path d="M20.3047 0H2.69531C1.20912 0 0 1.26169 0 2.8125V21.1875C0 22.7383 1.20912 24 2.69531 24H20.3047C21.7909 24 23 22.7383 23 21.1875V2.8125C23 1.26169 21.7909 0 20.3047 0ZM21.2031 21.1875C21.2031 21.7044 20.8001 22.125 20.3047 22.125H15.1836V14.4844H17.9593L18.418 11.5781H15.1836V9.5625C15.1836 8.7668 15.7687 8.15625 16.5312 8.15625H18.373V5.25H16.5312C14.2437 5.25 12.3994 7.18359 12.3994 9.57066V11.5781H9.70312V14.4844H12.3994V22.125H2.69531C2.19991 22.125 1.79688 21.7044 1.79688 21.1875V2.8125C1.79688 2.29556 2.19991 1.875 2.69531 1.875H20.3047C20.8001 1.875 21.2031 2.29556 21.2031 2.8125V21.1875Z" fill="#F2F2F2"/>
</svg>
